<?xml version="1.0" encoding="utf-8"?>
<!-- Generator: Adobe Illustrator 22.0.0, SVG Export Plug-In . SVG Version: 6.00 Build 0)  -->
<svg version="1.1" id="Camada_1" xmlns="http://www.w3.org/2000/svg" xmlns:xlink="http://www.w3.org/1999/xlink" x="0px" y="0px"
	 viewBox="0 0 70 70" style="enable-background:new 0 0 70 70;" xml:space="preserve">
<style type="text/css">
	.st0{fill-rule:evenodd;clip-rule:evenodd;fill:#F5A587;}
	.st1{fill-rule:evenodd;clip-rule:evenodd;fill:#D9D9D9;}
	.st2{fill-rule:evenodd;clip-rule:evenodd;fill:#FFFFFF;}
	.st3{fill:none;stroke:#D9D9D9;stroke-width:0.5;stroke-miterlimit:10;}
</style>
<g>
	<path class="st0" d="M38.9,23.1c-0.2-0.1-0.6-0.3-0.6,0.5l1.3,4.3L38.3,31h-6.5l-1.3-3.1l1.3-4.4c0-0.8-0.5-0.5-0.7-0.4
		c-1.8,1.3-2.8,3.3-2.8,5.5c0,2.6,1.4,4.9,3.6,5.9c0.2,0.1,0.6,0.3,0.6,0.8c0,0,0,5.8,0,7.7c0,0.5-0.3,0.5-0.3,0.5c-0.5,0-1,0.4-1,1
		v5.8c0,0.5,0.5,1,1,1h5.6c0.6,0,1.1-0.5,1.1-1v-5.8c0-0.6-0.5-1-1.1-1c0,0-0.2-0.1-0.2-0.5c0-1.8,0-7.7,0-7.7
		c0-0.6,0.3-0.6,0.4-0.7c2.2-1.1,3.8-3.3,3.8-6C41.8,26.4,40.7,24.3,38.9,23.1L38.9,23.1z"/>
	<path class="st1" d="M55.6,35.8v9.5l-1.9,0.2v1.7v1.5c0,0.6-0.4,1.1-1,1.1h-5.1c-0.6,0-1-0.5-1-1.1v-1.5v-1.8H40v-0.9l0,0
		c0-0.6-0.3-1.1-0.7-1.5l0,0c-0.2-0.2-0.4-0.4-0.6-0.5v-7c1.2-0.7,2.2-1.6,3-2.7c0.2-0.4,0.3-0.7,0.5-1h7.7l-1.3-9.1
		c-1-1.9-1.7-2.2-3.5-2.2H35h-9.8c-1.8,0-2.6,0.4-3.5,2.2l-1.5,9.1h7.7c0.1,0.3,0.3,0.6,0.5,0.9c0.7,1.2,1.8,2.1,3,2.8v7
		c-0.2,0.1-0.5,0.3-0.7,0.5l0,0l0,0c-0.4,0.4-0.6,0.9-0.6,1.5v0.9h-6.7v1.8v1.5c0,0.6-0.4,1.1-1,1.1h-5.1c-0.6,0-1-0.5-1-1.1v-1.5
		v-1.7l-1.9-0.2v-9.5c0-1.3,0.2-2.2,0.9-3.4l3.4-13.2c0.8-1.6,2.6-2.8,4.4-2.8H35h12c1.8,0,3.7,1.3,4.4,2.8l3.3,13.2
		C55.3,33.6,55.6,34.5,55.6,35.8L55.6,35.8z"/>
	<path class="st2" d="M52.2,38.6c0-1.8-1.5-3.2-3.2-3.2c-1.8,0-3.2,1.4-3.2,3.2c0,1.8,1.4,3.1,3.2,3.1
		C50.8,41.8,52.2,40.4,52.2,38.6L52.2,38.6z"/>
	<path class="st2" d="M17.9,38.6c0-1.8,1.5-3.2,3.2-3.2c1.9,0,3.2,1.4,3.2,3.2c0,1.8-1.4,3.1-3.2,3.1C19.3,41.8,17.9,40.4,17.9,38.6
		L17.9,38.6z"/>
	<polygon class="st2" points="32.2,42.5 32.2,42.5 32.2,42.5 	"/>
	<polygon class="st2" points="35,45 36.2,45.6 37.3,46.3 37.3,47.6 37.3,49 36.2,49.6 35,50.3 33.9,49.6 32.8,49 32.8,47.6 
		32.8,46.3 33.9,45.6 	"/>
</g>
<circle class="st3" cx="35" cy="35.4" r="32.4"/>
</svg>
