<svg id="Camada_1" data-name="Camada 1" xmlns="http://www.w3.org/2000/svg" viewBox="0 0 48.15 18.6"><defs><style>.cls-1,.cls-2{fill:#dadada;}.cls-1,.cls-3{fill-rule:evenodd;}.cls-3,.cls-6{fill:#f5a587;}.cls-4{fill:#fff;}.cls-5{fill:#72c3b0;}.cls-6{font-size:11.48px;font-family:HimsomniaRegular, Himsomnia;}.cls-7{font-size:4.02px;fill:#b2b2b2;font-family:HelveticaNeue-Light, Helvetica Neue;letter-spacing:0.06em;}</style></defs><title>Logo Rev.01</title><path class="cls-1" d="M22.13,14.48l3.95-5.35a1.79,1.79,0,0,1,1.76-2.68l.18,0L27,7.87l1.12.83,1-1.37.09.16A1.76,1.76,0,0,1,29,9.28,1.78,1.78,0,0,1,27.2,10l-2.63,3.56-1.32,1.79a1.53,1.53,0,1,1-1.12-.83Zm.35.7a1,1,0,1,1-1.43.24,1,1,0,0,1,1.43-.24Z" transform="translate(-8.56 -4.74)"/><path class="cls-2" d="M32.91,15.39a2.65,2.65,0,0,0,.06-.3A7.31,7.31,0,0,0,33,14a2.78,2.78,0,0,0-.14-1,2.94,2.94,0,0,0-.61-1.1,6.63,6.63,0,0,0-.86-.75A1.1,1.1,0,0,0,31,11a1.81,1.81,0,0,1-.4-.18,3,3,0,0,1-.25-.26,1.76,1.76,0,0,0-.14-.27,4.33,4.33,0,0,0-.38-.34c-.07-.06-.21,0-.26.07l-.28.3a1.35,1.35,0,0,0-.21.38.14.14,0,0,0,0,.17l.43.34a.48.48,0,0,0,.16.07.82.82,0,0,1,.29.14,2.92,2.92,0,0,1,.34.23c.1.1.2.2.19.3a1.44,1.44,0,0,1-.13.32c-.13.13-.22.29-.28.35s0,.15,0,.15l-.3.32c-.11.12-.47.62-.61.77s-.39.44-.57.63-1.07,1-1.28,1.26a.08.08,0,0,0-.12,0,3.58,3.58,0,0,1-.33.31c-.11.12-.58.57-.75.71s-.62.63-.81.83-1,1.15-1.1,1.29-.67.65-.83.81-.91.82-1,.91-.12.16-.09.25a.69.69,0,0,0,.18.25,5.93,5.93,0,0,0,.71.67l.19.07s.1,0,.12-.08.75-.94.86-1.09.56-.68.81-.91,1-.95,1.19-1.15l.8-.84c.22-.24.59-.69.73-.84a3.63,3.63,0,0,1,.25-.32c.07-.08,0-.12,0-.12s1-1.21,1.18-1.34.43-.46.6-.61.59-.51.7-.63.3-.28.38-.34a.13.13,0,0,0,.16,0,4,4,0,0,1,.46-.4.39.39,0,0,1,.5,0,2,2,0,0,1,.29.52,5.93,5.93,0,0,1,.15.59c0,.33.09.76.1.85s.06.2.08.24.07.07.1,0Z" transform="translate(-8.56 -4.74)"/><path class="cls-3" d="M11.79,10h0a2,2,0,0,1,2.49,1.26A2,2,0,0,1,13,13.71a2,2,0,0,1-2.49-1.28A2,2,0,0,1,11.79,10Zm-2,.12h0a.57.57,0,0,1,.07.54c-.05.1-.21.15-.4.12s-.36.12-.41.36a.41.41,0,0,0,.22.52.57.57,0,0,1,.33.45c0,.1-.12.22-.28.29a.39.39,0,0,0-.19.52c.09.26.28.4.45.33a.42.42,0,0,1,.42.07.63.63,0,0,1,0,.55c-.12.14-.07.38.12.57a.49.49,0,0,0,.57,0c.12-.15.45-.12.54-.08a.36.36,0,0,1,.1.41c0,.16.12.35.38.43s.47-.05.5-.24.35-.33.45-.33.24.11.28.3a.43.43,0,0,0,.53.17c.23-.07.4-.29.35-.45s.12-.45.21-.52a.37.37,0,0,1,.38.12.41.41,0,0,0,.55-.12.38.38,0,0,0,.07-.55c-.12-.12-.09-.45-.07-.57a.37.37,0,0,1,.4-.09.4.4,0,0,0,.43-.36.47.47,0,0,0-.21-.55c-.19,0-.34-.33-.36-.42s.14-.24.31-.29.24-.28.17-.54a.4.4,0,0,0-.46-.31c-.16,0-.42-.14-.52-.24s0-.26.12-.38.07-.38-.12-.57a.39.39,0,0,0-.54,0c-.12.15-.48.1-.55,0s-.14-.21-.09-.38a.44.44,0,0,0-.38-.43c-.26,0-.48,0-.53.24s-.33.31-.45.33-.21-.14-.28-.3a.37.37,0,0,0-.52-.17A.42.42,0,0,0,11,9c.05.17-.14.45-.21.5s-.26,0-.4-.1a.4.4,0,0,0-.55.1.45.45,0,0,0-.07.57Z" transform="translate(-8.56 -4.74)"/><rect class="cls-4" x="0.42" y="15.23" width="20.88" height="3.37"/><path class="cls-5" d="M19.46,20H10.57c-.82,0-1.72.06-2-1s.26-1.53,1.24-1.71c.62-.12.41-.68.46-1.06a9.26,9.26,0,0,1,4-6.65c.7-.49,1.09-.48,1.18.5a16.08,16.08,0,0,0,.43,2.4c.15.57,0,1.6,1,1.36.87-.2.47-1,.37-1.57-.19-1.09-.33-2.18-.58-3.24S17,7.46,17.93,7.27c3.78-.78,4.65.06,4,3.79-.11.56-.21,1.13-.3,1.69s-.08,1,.57,1.1.73-.33.82-.79c.18-1,.43-2,.52-3s.57-1,1.27-.49a9.22,9.22,0,0,1,3.95,6.55c.07.5-.07,1,.72,1.17a1.23,1.23,0,0,1,1,1.62c-.16.81-.8,1-1.52,1H19.46Z" transform="translate(-8.56 -4.74)"/><text class="cls-6" transform="translate(26.12 10.22) scale(1 1.06)">Mana</text><text class="cls-7" transform="translate(26.7 14.39)">me ajuda!</text></svg>