<?xml version="1.0" encoding="utf-8"?>
<!-- Generator: Adobe Illustrator 22.0.0, SVG Export Plug-In . SVG Version: 6.00 Build 0)  -->
<svg version="1.1" id="Camada_1" xmlns="http://www.w3.org/2000/svg" xmlns:xlink="http://www.w3.org/1999/xlink" x="0px" y="0px"
	 viewBox="0 0 70 70" style="enable-background:new 0 0 70 70;" xml:space="preserve">
<style type="text/css">
	.st0{fill:none;stroke:#D9D9D9;stroke-width:0.5;stroke-miterlimit:10;}
	.st1{fill:#D9D9D9;}
	.st2{fill:#F5A587;}
</style>
<circle class="st0" cx="35" cy="35.1" r="32.4"/>
<g>
	<path class="st1" d="M36.1,17.7c-1.1-0.8-2.3-1.3-3.6-1.5c-3.1-0.5-5.9,0.2-8.4,2.3c-1.7,1.5-2.4,3.5-2.4,5.7c0,9.3,0,18.7,0,28
		c0,0.7,0,0.7-0.7,0.7c-1.2,0-2.4,0-3.6,0c-0.3,0-0.5-0.1-0.5-0.4c0-9.5,0-18.9,0-28.4c0-3.9,1.5-7.3,4.7-9.7c2.3-1.8,5-2.8,7.9-3.1
		C33.5,11,37,12,40,14.6c0.7,0.6,1.3,1.3,1.9,2.1c0.2,0.3,0.4,0.4,0.7,0.5c4.8,1.1,8.2,5.5,8.1,10.5c0,0.4-0.1,0.5-0.5,0.5
		c-6.7,0-13.4,0-20.1,0c-0.4,0-0.5-0.2-0.5-0.5c-0.1-4,2.3-8,6-9.7C35.8,17.9,35.9,17.8,36.1,17.7z"/>
	<path class="st1" d="M40.6,30.5c3.6,0,7.2,0,10.8,0c0.7,0,1.2,0.3,1.5,0.9c0.3,0.7,0.2,1.3-0.3,1.8c-0.3,0.3-0.7,0.5-1.2,0.5
		c-7.2,0-14.5,0-21.7,0c-1,0-1.7-0.7-1.7-1.6c0-0.9,0.7-1.6,1.7-1.6C33.3,30.5,37,30.5,40.6,30.5z"/>
	<path class="st2" d="M39.8,36c0.3,0.8,0.8,1.3,1.2,1.9c0.5,0.6,0.9,1.4,0.8,2.2c-0.2,1.2-1.3,2-2.5,1.7c-1.1-0.3-1.7-1.6-1.3-2.8
		c0.2-0.4,0.4-0.8,0.7-1.2C39.1,37.3,39.5,36.8,39.8,36z"/>
	<path class="st2" d="M39.8,47.4c0.3,0.7,0.8,1.3,1.2,1.9c0.5,0.6,0.9,1.3,0.8,2.2c-0.2,1.2-1.3,2-2.5,1.7c-1.1-0.3-1.7-1.5-1.3-2.8
		c0.1-0.4,0.4-0.8,0.6-1.2c0.2-0.3,0.5-0.5,0.7-0.8C39.5,48,39.6,47.7,39.8,47.4z"/>
	<path class="st2" d="M46.9,36c0.3,0.8,0.8,1.4,1.2,1.9c0.5,0.7,0.9,1.4,0.8,2.4c-0.2,1.1-1.3,1.8-2.4,1.6c-1.1-0.2-1.7-1.3-1.5-2.4
		c0.1-0.6,0.4-1.1,0.8-1.6C46.2,37.3,46.7,36.8,46.9,36z"/>
	<path class="st2" d="M43.6,41.8c0.4,1.2,1.3,1.9,1.8,2.9c0.6,1.5-0.3,3.1-1.9,3c-1.3,0-2.1-1.3-1.8-2.6c0.2-0.6,0.5-1.1,0.9-1.6
		C43,43,43.4,42.5,43.6,41.8z"/>
	<path class="st2" d="M36.2,41.8c0.3,0.9,0.8,1.4,1.3,2.1c0.3,0.4,0.5,0.9,0.6,1.4c0.1,0.8-0.2,1.6-0.8,2.1
		c-0.7,0.4-1.6,0.5-2.2,0.1c-0.7-0.5-1-1.2-0.9-2c0.1-0.7,0.4-1.2,0.8-1.7C35.5,43.1,36,42.6,36.2,41.8z"/>
	<path class="st2" d="M33.1,36c0.3,1,1,1.6,1.5,2.3c0.4,0.7,0.7,1.4,0.4,2.2c-0.3,1.1-1.5,1.6-2.5,1.3c-0.9-0.3-1.5-1.4-1.2-2.5
		c0.1-0.5,0.4-1,0.7-1.4C32.4,37.4,32.8,36.8,33.1,36z"/>
</g>
</svg>
