<svg id="Camada_1" data-name="Camada 1" xmlns="http://www.w3.org/2000/svg" viewBox="0 0 65.32 65.32"><defs><style>.cls-1{fill:none;stroke:#d9d9d9;stroke-miterlimit:10;stroke-width:0.5px;}.cls-2{fill:#d9d9d9;fill-rule:evenodd;}.cls-3{fill:#f5a587;}</style></defs><title>Entupimento</title><circle class="cls-1" cx="32.66" cy="32.66" r="32.41"/><path class="cls-2" d="M51.89,37.67c0,.34.07.61.07.89s-.07.55-.07.83h0c0,.06,0,.06-.07.06-.41,2.21-4.75,4.06-7.78,5.44v12.8a.47.47,0,0,1-.48.48H23.27a.47.47,0,0,1-.42-.48v-13c-3.16-1.51-5.09-3.71-5.09-6.12a4.53,4.53,0,0,1,.9-2.75H43.49a.48.48,0,0,0,.49-.49V17.78c0-5.57,7.7-6.6,7.91,0V37.67Z" transform="translate(-2.2 -3.03)"/><path class="cls-3" d="M26,33.24a0,0,0,0,1,0,.07,2.13,2.13,0,0,1-.27-.08,3.24,3.24,0,0,0-1.87.21,4.5,4.5,0,0,1-1.09.29,1.84,1.84,0,0,1-.51-.06L22,33.6l-.12-.08h0a.87.87,0,0,1-.23-.24.92.92,0,0,1,0-1.05,1.58,1.58,0,0,1,1.66-.65,3.47,3.47,0,0,1,1.44.64,5.27,5.27,0,0,1,1.14,1Z" transform="translate(-2.2 -3.03)"/><path class="cls-3" d="M29.49,33s0,.06-.06,0-.12-.21-.19-.3a5.35,5.35,0,0,0-1.6-1.56,5.24,5.24,0,0,1-1-.76,2.7,2.7,0,0,1-.4-.52s-.09-.16-.1-.19l-.07-.18h0a2.08,2.08,0,0,1-.11-.41c-.06-.45.1-.77.4-.83.55-.11,1.08.29,1.6,1a8.29,8.29,0,0,1,1,1.85,11.72,11.72,0,0,1,.57,1.9Z" transform="translate(-2.2 -3.03)"/><path class="cls-3" d="M36,33.24s0,.07,0,.07a2.58,2.58,0,0,0,.26-.08,3.24,3.24,0,0,1,1.87.21,4.62,4.62,0,0,0,1.09.29,1.77,1.77,0,0,0,.51-.06L40,33.6l.12-.08h0a.91.91,0,0,0,.24-.24,1,1,0,0,0,0-1.05,1.58,1.58,0,0,0-1.67-.65,3.53,3.53,0,0,0-1.44.64,5.79,5.79,0,0,0-1.14,1Z" transform="translate(-2.2 -3.03)"/><path class="cls-3" d="M32.48,33s0,.06.06,0,.13-.21.19-.3a5.26,5.26,0,0,1,1.61-1.56,5.57,5.57,0,0,0,1-.76,2.74,2.74,0,0,0,.39-.52,1.09,1.09,0,0,0,.1-.19l.07-.18h0a1.53,1.53,0,0,0,.1-.41c.06-.45-.1-.77-.4-.83-.55-.11-1.08.29-1.59,1a8.33,8.33,0,0,0-1,1.85,12.81,12.81,0,0,0-.57,1.9Z" transform="translate(-2.2 -3.03)"/></svg>