<svg id="Camada_1" data-name="Camada 1" xmlns="http://www.w3.org/2000/svg" viewBox="0 0 65.32 65.32"><defs><style>.cls-1{fill:none;stroke:#d9d9d9;stroke-miterlimit:10;stroke-width:0.5px;}.cls-2{fill:#d9d9d9;}.cls-3{fill:#f5a587;}.cls-4{fill:#fff;}</style></defs><title>Fiação</title><circle class="cls-1" cx="32.66" cy="32.66" r="32.41"/><path class="cls-2" d="M33.87,24.43a1.38,1.38,0,0,1,.8.3.15.15,0,0,0,.22,0l2.56-2A18.05,18.05,0,0,0,39,21.27c.26-.26.5-.52.76-.77a1.12,1.12,0,0,1,.64-.32,4.13,4.13,0,0,0,1.53-.55c1.53-.8,3.07-1.58,4.6-2.37.34-.18.69-.35,1-.54a.42.42,0,0,1,.52.06l.43.37a.35.35,0,0,1,0,.56l-2.06,1.88c-.46.41-.93.82-1.37,1.25a3.65,3.65,0,0,1-1.41.86A2,2,0,0,0,43,22a.52.52,0,0,0-.15.71,1.87,1.87,0,0,0,.2.29.59.59,0,0,0,1,0,4.28,4.28,0,0,0,.56-.78,4.16,4.16,0,0,1,1.1-1l3-2.12.63-.45a.36.36,0,0,1,.54.12c.11.19.19.38.29.58a.37.37,0,0,1-.08.46L48.3,22c-.7.84-1.4,1.69-2.09,2.54-.23.27-.45.55-.68.81a1.2,1.2,0,0,0-.2.43,1.8,1.8,0,0,1-.85,1c-.69.38-1.38.78-2.06,1.18a3.6,3.6,0,0,0-.69.66,25.59,25.59,0,0,0-1.79,2.11c0,.06-.08.1-.06.18a2,2,0,0,1-.26,1.56c-.33.64-.8,1.2-1.16,1.83-.52.93-1,1.87-1.51,2.82s-1.08,2.08-1.59,3.13c-.39.78-.77,1.57-1.12,2.38a8,8,0,0,1-1.57,2.16,35,35,0,0,1-3.2,2.88c-.61.5-1.23,1-1.84,1.5a8.19,8.19,0,0,0-1.76,2.29,5.3,5.3,0,0,1-.45.71,1.22,1.22,0,0,1-1.63.47,4.77,4.77,0,0,1-2-1.47,2.07,2.07,0,0,1-.44-1.71A3.12,3.12,0,0,1,22,48.17a19.54,19.54,0,0,1,2.06-2.11C25.16,45,26.29,44,27.41,43c.8-.75,1.61-1.48,2.4-2.24a13.32,13.32,0,0,0,1.71-1.81,15.32,15.32,0,0,0,1.18-2,47.62,47.62,0,0,0,2-4.85,2.14,2.14,0,0,1,.77-1,.34.34,0,0,0,.17-.3c0-.21,0-.42,0-.63a.5.5,0,0,1,.16-.34c.64-.61,1.29-1.21,2-1.78.11-.09.09-.14,0-.21a3,3,0,0,1-.53-.6c-.08-.15-.17,0-.24,0l-1.16.85c-.3.22-.62.44-.92.67a.54.54,0,0,1-.33.1l-.88,0a.4.4,0,0,0-.3.11,2.07,2.07,0,0,1-1.08.52c-1.09.16-2.18.31-3.26.52a20.43,20.43,0,0,0-4,1.1,9.59,9.59,0,0,0-1.86,1.08L19,35.08c-1,.69-2,1.41-3,2.1a15.55,15.55,0,0,1-2.07,1.28,3.3,3.3,0,0,1-1.48.39,2.08,2.08,0,0,1-1.69-.93,4.63,4.63,0,0,1-.93-2.37,1.12,1.12,0,0,1,.54-1.12,3.57,3.57,0,0,1,1-.43,9,9,0,0,0,3.44-1.87,43,43,0,0,1,4-3A13.79,13.79,0,0,1,20.71,28a8.56,8.56,0,0,1,1.64-.48c1.61-.35,3.19-.77,4.78-1.2,1.29-.36,2.59-.71,3.86-1.12.61-.19,1.17-.49,1.78-.67A2.39,2.39,0,0,1,33.87,24.43Z" transform="translate(-2.02 -2.54)"/><path class="cls-3" d="M34.5,25.93a2.8,2.8,0,0,1-.27.8,5.8,5.8,0,0,1-1.08,1.48,2,2,0,0,1-1.33.57c-1.21.16-2.41.35-3.6.61a19.43,19.43,0,0,0-3.51,1.05,11.88,11.88,0,0,0-2.06,1.22l-4.12,2.86c-1,.68-1.94,1.38-2.92,2.06a14,14,0,0,1-2.13,1.29,1.87,1.87,0,0,1-1.37.2,1.59,1.59,0,0,1-.84-.67,4.45,4.45,0,0,1-.7-1.68c-.08-.48,0-.66.48-.83l1.58-.55A8.61,8.61,0,0,0,15,32.9c1-.83,2-1.64,3.07-2.41.67-.48,1.35-.94,2.06-1.36a8.5,8.5,0,0,1,2.64-.94c1.46-.3,2.89-.7,4.33-1.09s2.79-.75,4.17-1.2c.56-.19,1.11-.44,1.68-.64A1.52,1.52,0,0,1,34,25.2.62.62,0,0,1,34.5,25.93Z" transform="translate(-2.02 -2.54)"/><path class="cls-3" d="M39.21,31.52a2.42,2.42,0,0,1-.52,1.15,36.55,36.55,0,0,0-2.19,3.79c-.72,1.38-1.43,2.76-2.11,4.16-.28.59-.56,1.19-.82,1.79a5.67,5.67,0,0,1-1,1.49,32.51,32.51,0,0,1-3.44,3.2c-.76.63-1.57,1.18-2.27,1.88a9.1,9.1,0,0,0-1.06,1.33c-.32.47-.57,1-.9,1.45s-.42.42-.81.26a4.14,4.14,0,0,1-1.67-1.19,1.39,1.39,0,0,1-.1-1.8,6.76,6.76,0,0,1,1.22-1.45c.9-.9,1.86-1.76,2.79-2.62,1.61-1.5,3.24-3,4.82-4.5a11.18,11.18,0,0,0,2-2.81,34.71,34.71,0,0,0,1.72-3.9c.19-.49.37-1,.55-1.48a1.49,1.49,0,0,1,.67-.75,4.91,4.91,0,0,1,2.18-.85,1.57,1.57,0,0,1,.57,0,.72.72,0,0,1,.41.7S39.22,31.48,39.21,31.52Z" transform="translate(-2.02 -2.54)"/><path class="cls-2" d="M47.51,17.57c0,.08,0,.09,0,.12L45.1,19.83c-.21.19-.42.37-.62.57a2.56,2.56,0,0,1-1.06.61,2.44,2.44,0,0,0-.85.47,1.27,1.27,0,0,0-.13,1.89,2.87,2.87,0,0,1,.62,1.54,2.8,2.8,0,0,1-.84,2.29,2.75,2.75,0,0,1-2.8.72,2.72,2.72,0,0,1-1.81-1.53A2.81,2.81,0,0,1,38,23.26c.7-.75,1.44-1.47,2.16-2.2a.73.73,0,0,1,.46-.21,3.45,3.45,0,0,0,1.46-.51l3.65-1.89,1.66-.85Z" transform="translate(-2.02 -2.54)"/><path class="cls-2" d="M43.53,26.54a4.89,4.89,0,0,0,.24-1,3.46,3.46,0,0,0-.14-1.43c0-.1,0-.12.09-.14a1.54,1.54,0,0,0,1.13-.8,4.72,4.72,0,0,1,1.56-1.55c.92-.64,1.82-1.29,2.73-1.94l.08,0c0,.09,0,.14-.09.19l-2.43,3-1.69,2a1.9,1.9,0,0,0-.36.69,1,1,0,0,1-.5.62C44,26.28,43.77,26.4,43.53,26.54Z" transform="translate(-2.02 -2.54)"/><path class="cls-4" d="M40.68,28.73l-.37.44-.78.95c0,.05-.05.14-.15.07a2.1,2.1,0,0,0-1.73-.14,5.53,5.53,0,0,0-1,.35l-.21.09a.38.38,0,0,1,.17-.39c.6-.57,1.21-1.14,1.83-1.69.06-.05.1-.1.19-.05A3.55,3.55,0,0,0,40.68,28.73Z" transform="translate(-2.02 -2.54)"/><path class="cls-4" d="M34.22,28.08a5.67,5.67,0,0,0,.86-1.51,2,2,0,0,0,.11-1.08c0-.08,0-.1.07-.13l1.43-1.11a2.36,2.36,0,0,1,0,.29,3.33,3.33,0,0,0,.14,1.74.22.22,0,0,1-.1.31c-.68.47-1.35.94-2,1.44C34.53,28.14,34.39,28.08,34.22,28.08Z" transform="translate(-2.02 -2.54)"/><path class="cls-2" d="M54.36,54.24c-.08-.61-.15-1.21-.23-1.8-.09-.76-.19-1.51-.29-2.26,0-.12,0-.24,0-.35s0-.08,0-.09-.07,0-.09,0a7.05,7.05,0,0,1-.47.61,5.59,5.59,0,0,1-.67.62,7.25,7.25,0,0,1-1.38.86,8.8,8.8,0,0,1-2.2.69,12,12,0,0,1-1.89.2,13.53,13.53,0,0,1-4-.49A8.56,8.56,0,0,1,41,51.4,7.52,7.52,0,0,1,39.22,50a5.85,5.85,0,0,1-1.73-3.52,8.08,8.08,0,0,1,.07-1.77,25.31,25.31,0,0,1,.48-2.6,5.19,5.19,0,0,1,1-1.91,6.47,6.47,0,0,1,1.68-1.54,9.47,9.47,0,0,1,3.2-1.28,11.66,11.66,0,0,1,2.57-.24,11.94,11.94,0,0,1,3,.45,10.7,10.7,0,0,1,2.6,1.12,10.31,10.31,0,0,1,1.26.94,6.63,6.63,0,0,1,1.23,1.41,5.47,5.47,0,0,1,.88,2.34c.13,1,.26,2,.4,3s.25,1.89.38,2.84a.55.55,0,0,1-.08.31c-.42,1.12-.85,2.24-1.28,3.37l-.45,1.21Z" transform="translate(-2.02 -2.54)"/><path class="cls-2" d="M46.21,37.71a10.72,10.72,0,0,1,5.53,1.46,6.89,6.89,0,0,1,2.63,2.62,4.48,4.48,0,0,1-1.06,5.67,7.88,7.88,0,0,1-3.74,1.86,10.05,10.05,0,0,1-2.73.27,10.61,10.61,0,0,1-5.62-1.72,6.4,6.4,0,0,1-2.37-2.68,4.29,4.29,0,0,1,.4-4.44,6.6,6.6,0,0,1,3-2.28,9.41,9.41,0,0,1,2.32-.64A8.64,8.64,0,0,1,46.21,37.71Z" transform="translate(-2.02 -2.54)"/><path class="cls-4" d="M38.1,44.82a8,8,0,0,0,.48,1,6.93,6.93,0,0,0,1.66,2,9.54,9.54,0,0,0,3.28,1.75,12.06,12.06,0,0,0,2.16.48,11.23,11.23,0,0,0,1.92.09,10.16,10.16,0,0,0,5.16-1.56,8.23,8.23,0,0,0,1.27-1c-.07.22-.14.43-.2.65a4.49,4.49,0,0,1-1.24,2.11A6.77,6.77,0,0,1,50,51.77a10.74,10.74,0,0,1-4,.46,10.81,10.81,0,0,1-4.39-1,6.92,6.92,0,0,1-3-2.76A4.64,4.64,0,0,1,38,45.58C38,45.32,38.05,45.07,38.1,44.82Z" transform="translate(-2.02 -2.54)"/><path class="cls-4" d="M55.22,45.7l.21,1.57c.08.61.17,1.22.25,1.83a.38.38,0,0,1,0,.21c-.34.89-.67,1.79-1,2.68,0,0,0,0,0,.07,0-.37-.09-.71-.14-1.05-.06-.5-.1-1-.2-1.5a2.74,2.74,0,0,1,.18-1.5c.25-.74.47-1.49.7-2.23C55.16,45.75,55.17,45.71,55.22,45.7Z" transform="translate(-2.02 -2.54)"/><path class="cls-2" d="M46.54,39a8,8,0,0,1,4.32,1.36,4.36,4.36,0,0,1,1.85,2.41,2.94,2.94,0,0,1-.63,2.84,5.16,5.16,0,0,1-2.93,1.66,7.4,7.4,0,0,1-2.61.17A7.67,7.67,0,0,1,42.6,46a4.3,4.3,0,0,1-1.66-2.27,3,3,0,0,1,.66-2.86,5.21,5.21,0,0,1,2.89-1.64A8.56,8.56,0,0,1,46.54,39Z" transform="translate(-2.02 -2.54)"/><path class="cls-4" d="M45.6,42.31a6.34,6.34,0,0,1,3.56,1A3,3,0,0,1,50.45,45a1.89,1.89,0,0,1,0,1.2.3.3,0,0,1-.15.18,6.59,6.59,0,0,1-1.95.55,6.91,6.91,0,0,1-2,0A6.65,6.65,0,0,1,42.22,45a5.32,5.32,0,0,1-.36-.47.27.27,0,0,1,0-.33,3,3,0,0,1,1.52-1.39A5.35,5.35,0,0,1,45.6,42.31Z" transform="translate(-2.02 -2.54)"/><path class="cls-4" d="M51,45.92a2.55,2.55,0,0,0-.33-1.69,4.18,4.18,0,0,0-1.8-1.66,7.2,7.2,0,0,0-2.48-.75A6.3,6.3,0,0,0,44,42a4,4,0,0,0-2.51,1.67h0a2.38,2.38,0,0,1,.1-1.72,3.53,3.53,0,0,1,1.84-1.73,6.85,6.85,0,0,1,3.46-.59,7.6,7.6,0,0,1,3.32,1,4.53,4.53,0,0,1,1.74,1.68,2.63,2.63,0,0,1-.54,3.32Z" transform="translate(-2.02 -2.54)"/></svg>