<?xml version="1.0" encoding="utf-8"?>
<!-- Generator: Adobe Illustrator 22.0.0, SVG Export Plug-In . SVG Version: 6.00 Build 0)  -->
<svg version="1.1" id="Camada_1" xmlns="http://www.w3.org/2000/svg" xmlns:xlink="http://www.w3.org/1999/xlink" x="0px" y="0px"
	 viewBox="0 0 70 70" style="enable-background:new 0 0 70 70;" xml:space="preserve">
<style type="text/css">
	.st0{fill:none;stroke:#D9D9D9;stroke-width:0.5;stroke-miterlimit:10;}
	.st1{fill-rule:evenodd;clip-rule:evenodd;fill:#D9D9D9;}
	.st2{fill-rule:evenodd;clip-rule:evenodd;fill:#FFFFFF;}
	.st3{fill-rule:evenodd;clip-rule:evenodd;fill:#F5A587;}
</style>
<circle class="st0" cx="34.2" cy="35.5" r="32.4"/>
<g>
	<path class="st1" d="M44.6,17.7c-1-4.8-5.3-8.4-10.4-8.4c-5.1,0-9.4,3.6-10.4,8.4c-1.3,0.2-2.3,1.2-2.3,2.5v6.4
		c0,1.3,1.2,2.5,2.8,2.5h0.2c-0.2,2-0.2,4.5-0.7,6.9c-0.3,3-2,5.3-5.4,5.3l0,0c0.8,0.8,1.8,1.3,3.1,1.3c-5.4,3.6-8.7,3.5-9.5,12.7
		h22.4h0.2h21.9c-0.7-9.1-4-9.4-9.7-12.5v-0.2c1.5,0.2,2.8-0.3,3.6-1.3c-3.1,0-4.9-2.1-5.4-5.1c-0.3-2.5-0.7-4.9-0.8-7.1h0.2
		c1.5,0,2.8-1.2,2.8-2.5v-6.4C47.1,18.8,45.9,17.8,44.6,17.7L44.6,17.7z"/>
	<path class="st2" d="M26.1,29h0.2c1.5,0,0.2-1.2,0.2-2.5v-3.5c1-0.8,2-2.3,2.5-4.3l0,0c1.2,4.3,6.4,5.8,10.7,4.5
		c1.1-0.3,1.8-0.7,2.5-0.5v3.8c0,1.3-1.3,2.5,0.2,2.5l0,0c-0.3,1.6-1.8,4.3-5.1,4.5C37,33.2,36.8,33,36.5,33h-1.8
		c-0.7,0-1.3,0.5-1.3,1.2c0,0.7,0.7,1.2,1.3,1.2h1.8c0.2,0,0.5-0.2,0.7-0.2c0.7-0.2,1.3-0.3,2-0.5c-0.3,0.3-0.5,0.5-0.5,0.5
		c-0.2,1.2,0.7,3,1,3.6c-0.5,0.8-0.8,1.3-1.3,1.8c-2.6,2.3-7.3,2.1-9.4-1.6c0.3-1,1-2.6,0.8-3.8C29.7,35.1,26.9,32.8,26.1,29
		L26.1,29z"/>
	<path class="st3" d="M33.4,24.9h1.4c0,0,0-0.2,0-0.4v-0.2c0.2-0.2,0.4-0.2,0.4-0.2H41c0,0,0.2,0,0.2,0.2c0.2,0,0.2,0.2,0.2,0.2
		c0,0.8-0.4,3.1-1.2,3.7c-0.6,0.4-1.6,0.4-2.1,0.4c-0.4,0-1.6,0-2.3-0.4c-0.4-0.4-0.6-1.4-0.8-2.5h-1.6c-0.2,1-0.4,2.1-1,2.5
		c-0.6,0.4-1.6,0.6-2.1,0.6c-0.4,0-1.6-0.2-2.3-0.6c-0.8-0.6-1-2.9-1-3.7v-0.2c0.2-0.2,0.2-0.2,0.4-0.2h5.8c0,0,0.2,0,0.2,0.2
		c0.2,0,0.2,0.2,0.2,0.2C33.6,24.7,33.6,24.9,33.4,24.9L33.4,24.9z M40.4,24.9c0,1.2-0.4,2.5-0.6,2.7c-0.2,0-0.8,0.2-1.6,0.2
		c-0.8,0-1.4-0.2-1.6-0.2c-0.2-0.2-0.6-1.4-0.8-2.7H40.4z M32.6,24.9c-0.2,1.2-0.4,2.5-0.6,2.7c-0.4,0-0.8,0.2-1.6,0.2
		c-0.8,0-1.4-0.2-1.6-0.2c-0.2-0.2-0.6-1.4-0.8-2.7H32.6z"/>
</g>
</svg>
