<?xml version="1.0" encoding="utf-8"?>
<!-- Generator: Adobe Illustrator 22.0.0, SVG Export Plug-In . SVG Version: 6.00 Build 0)  -->
<svg version="1.1" id="Camada_1" xmlns="http://www.w3.org/2000/svg" xmlns:xlink="http://www.w3.org/1999/xlink" x="0px" y="0px"
	 viewBox="0 0 70 70" style="enable-background:new 0 0 70 70;" xml:space="preserve">
<style type="text/css">
	.st0{fill:none;stroke:#D9D9D9;stroke-width:0.5;stroke-miterlimit:10;}
	.st1{fill:#D9D9D9;}
	.st2{fill:#F5A587;}
</style>
<circle class="st0" cx="34.7" cy="34.9" r="32.4"/>
<g>
	<path class="st1" d="M32.1,22.1c0,1,0,2,0,3c0,0.2,0.1,0.2,0.2,0.2c1,0,1.9,0,2.9,0c1.2,0,2.1,0.9,2.1,2c0,3.5,0,6.9,0,10.4
		c0,1.1-0.9,2-2,2c-3.5,0-6.9,0-10.4,0c-1.1,0-2-0.9-2-2c0-3.5,0-7,0-10.5c0-0.9,0.7-1.7,1.6-1.9c0.8-0.1,1.6,0,2.4-0.1
		c0.3,0,0.6,0,1,0c0.2,0,0.2,0,0.2-0.2c0-1,0-2,0-3c-0.3,0.1-0.5,0.3-0.8,0.4c-1,0.4-2,0.3-2.9-0.3c-0.2-0.2-0.5-0.3-0.7-0.6
		c-0.1-0.1-0.2-0.1-0.3,0c-0.7,0.8-1.7,1.2-2.8,1.1c-1.5-0.2-2.6-1.2-2.9-2.7c-0.2-1.4,0.3-2.4,1.3-3.2c1.1-0.8,2.6-0.8,3.8,0
		c0.3,0.2,0.5,0.4,0.7,0.7c0.5-0.7,1.2-1.1,2.1-1.3c0.9-0.1,1.7,0.1,2.4,0.6c0.1-0.4,0-0.8,0-1.1c0-0.5,0.1-1,0.5-1.4
		c0.7-0.9,2.4-0.9,3.1,0c0.3,0.4,0.5,0.8,0.4,1.4c0,0.4,0,0.7,0,1.2c0.7-0.5,1.5-0.8,2.4-0.6c0.9,0.1,1.6,0.6,2.1,1.3
		c1.5-1.8,3.7-1.5,4.9-0.4c1.3,1.3,1.3,3.3,0.2,4.5c-1.2,1.4-3.6,1.6-5.1-0.2c-0.5,0.7-1.3,1.1-2.1,1.3
		C33.6,22.9,32.8,22.7,32.1,22.1z"/>
	<path class="st1" d="M49.7,45c-1.7,0-3.4,0-5.1,0c-0.5,0-0.9-0.4-0.7-0.9c0.1-0.3,0.3-0.5,0.7-0.5c0.2,0,0.4,0.1,0.5,0
		c0.1-0.1,0-0.4,0-0.6c0-0.9,0-1.8,0-2.7c0-1.7-1.5-3.3-3.3-3.2c-1,0-2,0-3,0c-0.2,0-0.2-0.1-0.2-0.3c0-2.9,0-5.8,0-8.7
		c0-0.2,0-0.2,0.2-0.2c1.1,0,2.1,0,3.2,0c3,0.1,5.6,1.1,7.9,3c1.9,1.6,3.2,3.6,3.9,6c0.3,1,0.5,2.1,0.5,3.2c0,1.1,0,2.1,0,3.2
		c0,0.2,0,0.3,0.3,0.3c0.2,0,0.4,0,0.6,0c0.3,0.1,0.5,0.3,0.5,0.6c0,0.3-0.2,0.6-0.5,0.6C55,45,54.9,45,54.7,45
		C53,45,51.3,45,49.7,45z"/>
	<path class="st1" d="M21.6,32.6c0,1.4,0,2.9,0,4.3c0,0.2,0,0.2-0.2,0.2c-2.3,0-4.6,0-6.9,0c-0.4,0-0.7-0.3-0.7-0.7
		c0-2.6,0-5.1,0-7.7c0-0.4,0.3-0.7,0.7-0.7c2.3,0,4.7,0,7,0c0.2,0,0.1,0.1,0.1,0.2c0,1,0,2.1,0,3.1C21.6,31.7,21.6,32.2,21.6,32.6
		C21.6,32.6,21.6,32.6,21.6,32.6z"/>
	<path class="st2" d="M46.4,52.3c0-0.6,0.2-1.2,0.4-1.8c0.6-1.4,1.4-2.6,2.2-3.8c0.3-0.5,1-0.4,1.2-0.1c0.9,1.3,1.7,2.6,2.3,4
		c0.2,0.5,0.4,1,0.4,1.5c0,0.7-0.2,1.4-0.7,2c-0.7,0.9-1.6,1.3-2.8,1.3c-1.2,0-2.4-0.9-2.8-2c-0.1-0.2-0.1-0.3-0.2-0.5
		C46.4,52.7,46.4,52.5,46.4,52.3z"/>
</g>
</svg>
