<?xml version="1.0" encoding="utf-8"?>
<!-- Generator: Adobe Illustrator 22.0.0, SVG Export Plug-In . SVG Version: 6.00 Build 0)  -->
<svg version="1.1" id="Camada_1" xmlns="http://www.w3.org/2000/svg" xmlns:xlink="http://www.w3.org/1999/xlink" x="0px" y="0px"
	 viewBox="0 0 70 70" style="enable-background:new 0 0 70 70;" xml:space="preserve">
<style type="text/css">
	.st0{fill:none;stroke:#D9D9D9;stroke-width:0.5;stroke-miterlimit:10;}
	.st1{fill-rule:evenodd;clip-rule:evenodd;fill:#D9D9D9;}
	.st2{fill-rule:evenodd;clip-rule:evenodd;fill:#F5A587;}
</style>
<g>
	<circle class="st0" cx="34.8" cy="35.4" r="32.4"/>
	<polygon class="st1" points="29.3,49.3 29.3,49.3 29.3,51.8 40.5,51.8 40.5,49.3 	"/>
	<path class="st1" d="M47,31.6L47,31.6c0-6.7-5.4-12.1-12.1-12.1c-6.7,0-12.1,5.4-12.1,12.1c0,2.9,1,5.4,2.6,7.6
		c1.4,1.8,2.8,3.7,4,5.7v1.8h11.2v-1.8c1.1-2,2.5-3.9,3.9-5.7C46,37,47,34.4,47,31.6L47,31.6z"/>
	<path class="st2" d="M36,17.1L36,17.1v-3.2c0-0.5-0.4-0.9-0.9-0.9c-0.5,0-0.9,0.4-0.9,0.9v3.2c0,0.5,0.4,0.9,0.9,0.9
		C35.6,17.9,36,17.5,36,17.1L36,17.1z"/>
	<path class="st2" d="M27.9,15.7L27.9,15.7c-0.2-0.5-0.8-0.6-1.1-0.3c-0.4,0.2-0.6,0.8-0.3,1.1l1.6,2.7c0.2,0.3,0.5,0.5,0.8,0.5
		c0.1,0,0.3-0.1,0.5-0.2c0.4-0.2,0.5-0.8,0.3-1.1L27.9,15.7z"/>
	<path class="st2" d="M40.9,19.7L40.9,19.7c0.3,0,0.5-0.2,0.7-0.4l1.7-2.8c0.2-0.4,0.1-1-0.3-1.1c-0.5-0.3-1-0.2-1.2,0.3l-1.6,2.7
		c-0.2,0.4-0.1,1,0.3,1.1C40.5,19.6,40.7,19.7,40.9,19.7L40.9,19.7z"/>
	<path class="st1" d="M33.2,58.1h3.3c2.1,0,3.8-1.6,4-3.6H29.3C29.5,56.4,31.2,58.1,33.2,58.1L33.2,58.1z"/>
</g>
</svg>
