<?xml version="1.0" encoding="utf-8"?>
<!-- Generator: Adobe Illustrator 22.0.0, SVG Export Plug-In . SVG Version: 6.00 Build 0)  -->
<svg version="1.1" id="Camada_1" xmlns="http://www.w3.org/2000/svg" xmlns:xlink="http://www.w3.org/1999/xlink" x="0px" y="0px"
	 viewBox="0 0 70 70" style="enable-background:new 0 0 70 70;" xml:space="preserve">
<style type="text/css">
	.st0{fill:none;stroke:#D9D9D9;stroke-width:0.5;stroke-miterlimit:10;}
	.st1{fill:#D9D9D9;}
	.st2{fill:#FFFFFF;}
	.st3{fill:#FDFDFD;}
	.st4{fill:#FFFDFF;}
	.st5{fill:#FAF8F9;}
	.st6{fill-rule:evenodd;clip-rule:evenodd;fill:#F5A587;}
</style>
<circle class="st0" cx="34.4" cy="34.9" r="32.4"/>
<g>
	<path class="st1" d="M34.2,51.3c-7.4,0-14.8,0-22.2,0c-2.5,0-2.9-1-3.3-3c-0.2-0.7,0.4-1,0.7-1.3c1.7-1.5,3.4-3,5.1-4.5
		c0.5-0.4,0.6-0.9,0.6-1.6c0-8.4,0-16.7,0-25.1c0-0.8,0.1-1,1-1c12.1,0,24.2,0,36.3,0c0.9,0,1.2,0.2,1.2,1.2c0,8.4,0,16.8,0,25.2
		c0,0.6,0.2,1.1,0.6,1.4c1.8,1.6,3.7,3.2,5.5,4.8c0.2,0.2,0.4,0.3,0.4,0.7c-0.1,2.1-1.2,3.2-3.3,3.2C49.2,51.3,41.7,51.3,34.2,51.3z
		"/>
	<path class="st2" d="M16.9,16.8c1.8,0,3.7,0,5.5,0c9.5,0,18.9,0,28.4,0c0.9,0,1,0.2,1,1.1c0,7.2,0,14.4,0,21.6c0,0.9-0.3,1-1,1
		c-11,0-21.9,0-32.9,0c-0.9,0-1.1-0.2-1.1-1.1c0-6.4,0-12.9,0-19.3C16.9,18.9,16.9,17.9,16.9,16.8z"/>
	<path class="st2" d="M13.1,46.4c0.9-0.9,1.8-1.7,2.7-2.6c0.3-0.3,0.6-0.3,1-0.3c8.5,0,16.9,0,25.4,0c0.6,0,0.8,0.2,0.9,0.7
		c0.2,0.8,0.8,1.8,0.5,2.3c-0.4,0.6-1.5,0.2-2.4,0.2c-9.2,0-18.4,0-27.6,0c-0.1,0-0.2,0-0.4,0C13.2,46.5,13.2,46.5,13.1,46.4z"/>
	<path class="st3" d="M44.9,43.4c2.6,0,5,0,7.4,0c0.4,0,0.6,0.2,0.8,0.4c0.8,0.9,1.7,1.7,2.6,2.6c-0.5,0.3-0.9,0.1-1.3,0.1
		c-2.3,0-4.6,0-7,0c-0.4,0-0.8,0-1-0.4C45.9,45.3,45.4,44.5,44.9,43.4z"/>
	<path class="st4" d="M12.4,48.8c4,0,8.1,0,12.1,0c0.2,0,0.5-0.1,0.5,0.3c0,0.4-0.3,0.3-0.5,0.3c-4,0-8.1,0-12.1,0
		c0-0.2,0.2-0.3,0.4-0.3c3.7,0,7.4,0,11.1,0c-3.5,0-7,0-10.5,0C13,49,12.6,49.3,12.4,48.8z"/>
	<path class="st5" d="M12.4,48.8c0.3,0.3,0.7,0.1,1.1,0.1c3.1,0,6.2,0,9.3,0c0.3,0,0.7-0.1,1.2,0.2c-1.7,0-3.2,0-4.7,0
		c-1.9,0-3.9,0-5.8,0c-0.3,0-0.7-0.1-1,0.2C12.1,49.1,12.1,48.9,12.4,48.8z"/>
	<path class="st6" d="M42.7,27.3c-0.4,0-0.8,0.2-1,0.5c-0.1,0.2-0.3,0.4-0.5,0.4H34c-0.2,0-0.3-0.2-0.3-0.4l0.4-1.4
		c0.3-0.7,1.1-1.4,1.9-1.4l0.7,0c0.2,0,0.4,0.2,0.5,0.4c0.2,0.4,0.6,0.6,1,0.6c0.6,0,1.2-0.5,1.2-1.2c0-0.6-0.5-1.2-1.2-1.2
		c-0.3,0-0.7,0.2-0.9,0.5c-0.1,0.2-0.4,0.3-0.6,0.3h-0.7c-1,0-2.1,0.8-2.4,1.8l-0.5,1.5c0,0.2-0.3,0.4-0.5,0.4h-3.2
		c-0.2,0-0.4-0.2-0.4-0.4c-0.3-0.9-1.2-1.7-2.2-1.7c-1.3,0-2.3,1-2.3,2.3c0,1.3,1.1,2.3,2.3,2.3c1.1,0,1.9-0.7,2.2-1.6
		c0-0.2,0.2-0.4,0.4-0.4h5.4c0.2,0,0.4,0.2,0.5,0.4l0.3,1.3c0.2,1,1.3,1.8,2.3,1.8h1.7c0.2,0,0.4,0.2,0.5,0.4c0.2,0.3,0.6,0.5,1,0.5
		c0.6,0,1.2-0.5,1.2-1.2c0-0.6-0.5-1.2-1.2-1.2c-0.4,0-0.8,0.2-1,0.5c-0.1,0.2-0.3,0.3-0.5,0.3h-1.7c-0.8,0-1.6-0.6-1.7-1.4
		l-0.3-1.1c0-0.2,0.1-0.4,0.3-0.4h5c0.2,0,0.4,0.2,0.5,0.3c0.2,0.3,0.6,0.6,1,0.6c0.6,0,1.2-0.5,1.2-1.2
		C43.9,27.8,43.4,27.3,42.7,27.3L42.7,27.3z"/>
</g>
</svg>
