<?xml version="1.0" encoding="utf-8"?>
<!-- Generator: Adobe Illustrator 22.0.0, SVG Export Plug-In . SVG Version: 6.00 Build 0)  -->
<svg version="1.1" id="Camada_1" xmlns="http://www.w3.org/2000/svg" xmlns:xlink="http://www.w3.org/1999/xlink" x="0px" y="0px"
	 viewBox="0 0 70 70" style="enable-background:new 0 0 70 70;" xml:space="preserve">
<style type="text/css">
	.st0{fill:none;stroke:#D9D9D9;stroke-width:0.5;stroke-miterlimit:10;}
	.st1{fill:#D9D9D9;}
	.st2{fill:#FFFFFF;}
	.st3{fill:#F5A587;}
</style>
<circle class="st0" cx="34.7" cy="35.3" r="32.4"/>
<g>
	<path class="st1" d="M34.8,45.3c-4.9,0-9.8,0-14.7,0c-2,0-2.7-0.8-2.7-2.7c0-7,0-14,0-21c0-1.8,0.8-2.6,2.6-2.6
		c9.9,0,19.8,0,29.7,0c1.7,0,2.5,0.8,2.5,2.6c0,7,0,14,0,21c0,2-0.8,2.7-2.7,2.7C44.5,45.3,39.6,45.3,34.8,45.3z"/>
	<path class="st1" d="M42.6,51.5c-5.2,0-10.4,0-15.6,0c-0.1-0.2,0.1-0.3,0.2-0.5c1.1-1.1,2.2-2.2,3.3-3.3c0.3-0.3,0.6-0.4,1-0.4
		c2.2,0,4.4,0,6.6,0c0.4,0,0.7,0.1,1,0.4c1.1,1.1,2.3,2.3,3.4,3.4C42.5,51.2,42.6,51.2,42.6,51.5z"/>
	<path class="st2" d="M37.2,22.2c0.5-0.2,1-0.2,1.5-0.1c3.4,0,6.7,0,10.1,0c0.6,0,0.7,0.1,0.7,0.7c0,6.1,0,12.1,0,18.2
		c0,0.6-0.2,0.7-0.7,0.7c-9.3,0-18.7,0-28,0c-0.5,0-0.7-0.1-0.7-0.7c0-6,0-12.1,0-18.1c0-0.6,0.2-0.8,0.8-0.8c3.6,0,7.2,0,10.8,0
		c0.3,0,0.5,0,0.8,0.2c0.2,0.2,0.2,0.6,0.2,0.9c0,2.3,0,4.6,0,6.9c0,1-0.1,1.1-1.1,1.1c-0.5,0-1,0-1.4,0c-0.2,0-0.4,0-0.5,0.2
		c-0.1,0.2,0.1,0.4,0.2,0.5c1,1.4,2.1,2.9,3.2,4.3c0.5,0.7,1.1,1.4,1.6,2.1c0.3,0.4,0.6,0.5,0.9,0c1.6-2.2,3.2-4.3,4.7-6.5
		c0.4-0.5,0.3-0.6-0.3-0.7c-0.6,0-1.2,0-1.8,0c-0.5,0-0.8-0.2-0.8-0.7c0-2.6,0-5.2,0-7.8C37.1,22.4,37.1,22.3,37.2,22.2z"/>
	<path class="st3" d="M37.2,22.2c0,2.6,0,5.2,0,7.7c0,1.2-0.1,1,1.1,1c0.6,0,1.1,0,1.7,0c0.2,0,0.5-0.1,0.6,0.1
		c0,0.1-0.1,0.4-0.2,0.5c-1.2,1.6-2.4,3.2-3.6,4.8c-0.6,0.8-1.1,1.5-1.7,2.3c-0.2,0.4-0.3,0.3-0.6,0c-1.8-2.4-3.5-4.8-5.3-7.2
		c-0.1-0.1-0.2-0.3-0.1-0.5c0.1-0.2,0.3-0.1,0.4-0.1c0.8,0,1.5,0,2.3,0c0.4,0,0.6-0.1,0.6-0.6c0-2.7,0-5.5,0-8.2
		C33.9,22.2,35.5,22.2,37.2,22.2z"/>
</g>
</svg>
