<?xml version="1.0" encoding="utf-8"?>
<!-- Generator: Adobe Illustrator 22.0.0, SVG Export Plug-In . SVG Version: 6.00 Build 0)  -->
<svg version="1.1" id="Camada_1" xmlns="http://www.w3.org/2000/svg" xmlns:xlink="http://www.w3.org/1999/xlink" x="0px" y="0px"
	 viewBox="0 0 70 70" style="enable-background:new 0 0 70 70;" xml:space="preserve">
<style type="text/css">
	.st0{fill:none;stroke:#D9D9D9;stroke-width:0.5;stroke-miterlimit:10;}
	.st1{fill-rule:evenodd;clip-rule:evenodd;fill:#F5A587;}
	.st2{fill-rule:evenodd;clip-rule:evenodd;fill:#D9D9D9;}
</style>
<circle class="st0" cx="34.3" cy="34.9" r="32.4"/>
<g>
	<rect x="34.5" y="15.8" class="st1" width="19.2" height="8.4"/>
	<rect x="17.2" y="34" class="st1" width="8.5" height="19.2"/>
	<path class="st2" d="M30,24.4c-0.6,0-1.1,0-1.5,0.1c-1.7,0.1-2.8,1.1-2.4,5h1.7l0,0l0,0v3v0.1l0,0H15l0,0v-0.1v-3l0,0l0,0h1.6
		c-0.3-6.3,0.3-10.1,2.5-12.1c2-1.9,5.5-2.3,10.9-1.9v-1.9v-0.1l0,0h3l0,0v0.1v12.7v0.1l0,0h-3l0,0v-0.1V24.4z"/>
</g>
</svg>
