<svg id="Camada_1" data-name="Camada 1" xmlns="http://www.w3.org/2000/svg" viewBox="0 0 65.32 65.32"><defs><style>.cls-1{fill:none;stroke-width:0.5px;}.cls-1,.cls-4{stroke:#dadada;stroke-miterlimit:10;}.cls-2,.cls-4{fill:#dadada;}.cls-3{fill:#fff;}.cls-4{stroke-width:0.25px;}.cls-5{fill:#f5a587;}</style></defs><title>Linha Branca</title><circle class="cls-1" cx="32.66" cy="32.66" r="32.41"/><path class="cls-2" d="M51.19,34.75V52.94a2.26,2.26,0,0,1-2.5,2.5h-28a2.25,2.25,0,0,1-2.49-2.5c0-12.08,0-24.16,0-36.23a2.45,2.45,0,0,1,2.57-2.65H48.27a2.76,2.76,0,0,1,2.65,1.17,2.46,2.46,0,0,1,.27,1.33Zm-16.52,16h14.6c1,0,1,0,1-1V24.48c0-1.14,0-1.15-1.13-1.15h-29c-1,0-1.08,0-1.08,1.05q0,12.72-.06,25.45c0,.68.25.94,1,.93C24.94,50.73,29.8,50.75,34.67,50.75Z" transform="translate(-2.03 -2.58)"/><path class="cls-3" d="M26,21c-1.37,0-2.74,0-4.11,0-.65,0-.94-.2-.91-.88,0-1,0-2,0-3.05,0-.55.22-.78.77-.77q4.2,0,8.39,0a.9.9,0,0,1,1,1,15.44,15.44,0,0,1-.1,3c-.1.57-.35.71-.86.71C28.78,21,27.38,21,26,21Zm.08-1h2.21c1.91,0,1.88,0,1.88-1.89,0-.64-.24-.78-.81-.77-1.83,0-3.66,0-5.48,0s-1.89,0-1.89,1.9c0,.63.25.77.82.76C23.88,20,25,20,26.06,20Z" transform="translate(-2.03 -2.58)"/><path class="cls-3" d="M49.35,18.72A2.22,2.22,0,0,1,47.07,21a2.34,2.34,0,1,1,0-4.67A2.23,2.23,0,0,1,49.35,18.72Zm-3.51,0A1.21,1.21,0,0,0,47.07,20a1.36,1.36,0,0,0,1.26-1.36,1.29,1.29,0,0,0-1.21-1.22A1.27,1.27,0,0,0,45.84,18.74Z" transform="translate(-2.03 -2.58)"/><path class="cls-3" d="M43.39,18.75A2.23,2.23,0,0,1,41.09,21a2.42,2.42,0,0,1-2.34-2.33,2.49,2.49,0,0,1,2.35-2.34A2.21,2.21,0,0,1,43.39,18.75Zm-1-.07a1.35,1.35,0,0,0-1.24-1.28,1.36,1.36,0,0,0-1.26,1.34A1.18,1.18,0,0,0,41.14,20,1.26,1.26,0,0,0,42.37,18.68Z" transform="translate(-2.03 -2.58)"/><path class="cls-3" d="M37.43,18.73a2.27,2.27,0,1,1-4.54,0,2.27,2.27,0,1,1,4.54,0Zm-1,0a1.25,1.25,0,1,0-2.5,0,1.25,1.25,0,1,0,2.5,0Z" transform="translate(-2.03 -2.58)"/><path class="cls-4" d="M24.43,37a10.24,10.24,0,1,1,20.47.53,10.32,10.32,0,0,1-10.41,9.81A10.21,10.21,0,0,1,24.43,37ZM44,37a9.23,9.23,0,0,0-9.21-9.27A9.36,9.36,0,1,0,44,37Z" transform="translate(-2.03 -2.58)"/><path class="cls-5" d="M43.06,37.69h0C43,42,39,45.46,34.64,45.46S26.32,42,26.22,37.67h0c.54-1.23,3.62-1.31,6.33-.21a.39.39,0,0,0,.11.06,5.35,5.35,0,0,0,4,0,.26.26,0,0,0,.09-.05C39.43,36.36,42.52,36.45,43.06,37.69Z" transform="translate(-2.03 -2.58)"/></svg>