<?xml version="1.0" encoding="utf-8"?>
<!-- Generator: Adobe Illustrator 22.0.0, SVG Export Plug-In . SVG Version: 6.00 Build 0)  -->
<svg version="1.1" id="Camada_1" xmlns="http://www.w3.org/2000/svg" xmlns:xlink="http://www.w3.org/1999/xlink" x="0px" y="0px"
	 viewBox="0 0 70 70" style="enable-background:new 0 0 70 70;" xml:space="preserve">
<style type="text/css">
	.st0{fill:none;stroke:#D9D9D9;stroke-width:0.5;stroke-miterlimit:10;}
	.st1{fill:#F5A587;}
	.st2{fill:#D9D9D9;}
	.st3{fill:#FFFFFF;}
	.st4{fill:#FAFAFA;}
	.st5{fill:#F8F8F9;}
	.st6{fill:#F8F7F8;}
	.st7{fill:#F9F8F8;}
	.st8{fill:#F7F7F7;}
	.st9{fill:#F3F3F3;}
	.st10{fill:#EEEEEF;}
	.st11{fill:#F4F4F4;}
	.st12{fill:#EEEDED;}
	.st13{fill:#EBEBEB;}
	.st14{fill:#EEEEEE;}
	.st15{fill:#EEEEED;}
	.st16{fill:#F3F2F3;}
	.st17{fill:#F6F6F6;}
	.st18{fill:#F8F7F7;}
	.st19{fill:#EAEAEB;}
	.st20{fill:#F4F4F5;}
	.st21{fill:#F5F5F5;}
	.st22{fill:#F3F2F2;}
	.st23{fill:#F1F1F1;}
	.st24{fill:#F1F0F0;}
	.st25{fill:#787878;}
	.st26{fill:#EFEFF0;}
	.st27{fill:#EFEFEF;}
	.st28{fill:#F0F0F0;}
</style>
<circle class="st0" cx="34.5" cy="35.6" r="32.4"/>
<g>
	<path class="st1" d="M35.9,23.1c-0.1,0.1-0.2,0-0.2,0c-3.7,0-7.4,0-11.1,0c-0.1,0-0.2,0-0.2,0c0.8,0,1.7,0,2.5,0
		c0.2,0,0.3-0.1,0.3-0.3c0.1-0.5,0.4-1,0.8-1.3c0.2-0.2,0.2-0.3,0.1-0.5c-0.7-1.4-1.5-2.9-2.2-4.4c-0.2-0.3-0.1-0.7,0.2-0.9
		c0.2-0.1,0.7-0.1,0.9,0.1c0.1,0.2,0.2,0.4,0.3,0.6c0.5,1.1,1.1,2.2,1.7,3.4c0.1,0.2,0.3,0.5,0.4,0.7c0.1,0.1,0.1,0.2,0.3,0.1
		c0.4-0.1,0.8-0.1,1.2,0c0.2,0,0.2-0.1,0.3-0.2c0.7-1.4,1.4-2.7,2-4.1c0-0.1,0.1-0.2,0.2-0.3c0.2-0.4,0.5-0.5,0.9-0.3
		c0.3,0.1,0.4,0.6,0.2,0.9c-0.7,1.5-1.4,2.9-2.2,4.4c-0.1,0.2-0.1,0.3,0.1,0.5c0.4,0.3,0.7,0.8,0.8,1.3c0.1,0.2,0.1,0.2,0.3,0.2
		C34.2,23.1,35.1,23.1,35.9,23.1z"/>
	<path class="st2" d="M35.9,23.1c0.1,0,0.2,0,0.3,0c5,0,10,0,15,0c1.4,0,2.8,1.1,3,2.5c0,0.2,0,0.4,0,0.6c0,7.8,0,15.6,0,23.4
		c0,1.5-1.2,2.8-2.6,3c-0.3,0-0.5,0-0.8,0c-11,0-21.9,0-32.9,0c-1.6,0-2.8-1.1-3.1-2.7c0-0.1,0-0.2,0-0.3c0-7.8,0-15.7,0-23.5
		c0-1,0.4-1.9,1.3-2.5c0.6-0.4,1.2-0.6,1.8-0.6c2.1,0,4.3,0,6.4,0c1,0,2,0.1,2.9,0c0.1,0,0.2,0,0.3,0c1.7,0,3.4,0,5.1,0
		c0.9,0,1.9,0,2.8,0C35.7,23.1,35.8,23.1,35.9,23.1z"/>
	<path class="st3" d="M43.5,30.8c0.2,0.9,0.4,1.8,0.5,2.6c0.3,2,0.3,4.1,0.3,6.1c0,1.2-0.1,2.4-0.4,3.5c-0.2,0.2-0.3,0.4-0.2,0.7
		c0.1,0.2-0.1,0.4-0.1,0.6c0,0.7-0.3,1.3-0.7,1.9c-0.9,1.3-2.1,1.9-3.6,2.1c-1,0.1-2,0.3-3,0.4c-0.7,0.1-1.4,0.1-2.2,0.1
		c-1.6,0.1-3.2,0.1-4.8,0c-1.5,0-3-0.2-4.5-0.4c-0.4-0.1-0.9-0.1-1.3-0.2c0.1-0.1,0.3,0,0.4,0c-0.1,0.1-0.3-0.1-0.4,0
		c-1-0.1-2-0.4-2.8-1.1c-0.3-0.3-0.6-0.5-0.8-0.9c0.1-0.1-0.1-0.1-0.1-0.2c-0.4-0.5-0.6-1.1-0.7-1.7c-0.2-1-0.4-2-0.5-3.1
		c-0.1-1.4-0.2-2.8-0.2-4.3c0-1.8,0.2-3.6,0.5-5.3c0.2-0.8,0.3-1.6,0.8-2.3c0.1-0.1,0.1-0.2,0.2-0.2c0,0,0,0,0.1,0
		c0,0,0.1,0.1,0.1,0.1c0,0-0.1-0.1-0.1-0.1c0,0,0-0.1,0-0.1c0.3-0.5,0.8-0.9,1.4-1.2c0.7-0.4,1.4-0.5,2.2-0.6c1.3-0.2,2.7-0.3,4-0.4
		c0.6-0.1,1.3,0,1.9-0.1c0.9,0,1.8-0.1,2.7,0c1.8,0.1,3.6,0.1,5.4,0.4c0.9,0.1,1.7,0.2,2.5,0.4c0.3,0.1,0.7,0.2,0.9,0.4
		c0.1,0.1,0.1,0.2,0,0.4c0.2,0,0.4,0,0.6,0c0.1,0.1,0.2,0.1,0.2,0.2c0.1,0.1,0.1,0.3,0.3,0.2c0.3,0.3,0.5,0.6,0.7,1
		c0,0.2,0.1,0.5,0.1,0.7c0,0,0,0.1,0,0.1C43.4,30.4,43.3,30.8,43.5,30.8z"/>
	<path class="st3" d="M49.6,28.3c2,0.6,2.8,3.2,1.2,4.9C50,34,49,34.4,47.9,34.1c-1.2-0.3-1.9-1.1-2.2-2.3c-0.2-0.7-0.1-1.4,0.3-2
		c0,0,0.1,0,0.1,0.1c0-0.1,0.1-0.2,0.1-0.4c0.4-0.8,1.1-1.2,1.9-1.4C48.5,28.1,49,28.1,49.6,28.3c-0.1,0-0.1,0.1-0.2,0.1
		c0,0-0.1,0-0.2,0C49.4,28.4,49.5,28.3,49.6,28.3z"/>
	<path class="st3" d="M48.6,39.1c-0.8,0-1.6,0-2.4,0c-0.4,0-0.7-0.3-0.7-0.6c0-0.3,0.3-0.6,0.7-0.6c1.6,0,3.1,0,4.7,0
		c0.3,0,0.5,0.1,0.6,0.4c0.1,0.2,0,0.4-0.1,0.6c-0.1,0.2-0.3,0.2-0.5,0.2C50.2,39.1,49.4,39.1,48.6,39.1
		C48.6,39.1,48.6,39.1,48.6,39.1z"/>
	<path class="st3" d="M48.6,42.9c0.8,0,1.5,0,2.3,0c0.4,0,0.7,0.2,0.7,0.6c0,0.3-0.3,0.6-0.7,0.6c-1.5,0-3.1,0-4.6,0
		c-0.5,0-0.9-0.4-0.7-0.8c0.1-0.3,0.3-0.4,0.6-0.4C47,42.9,47.8,42.9,48.6,42.9z"/>
	<path class="st3" d="M51.6,45.7c0.2,0.4-0.1,0.8-0.5,0.8c-0.9,0-1.9,0-2.8,0c-0.7,0-1.3,0-2,0c-0.5,0-0.8-0.4-0.6-0.8
		c0.1-0.2,0.3-0.3,0.6-0.3c1.6,0,3.2,0,4.8,0c0,0,0.1,0,0.1,0.1C51.3,45.5,51.3,45.7,51.6,45.7z"/>
	<path class="st3" d="M45.9,41.5c-0.3-0.1-0.3-0.3-0.3-0.6c0-0.2,0.3-0.5,0.5-0.5c0.1,0,0.2,0,0.3,0c1.5,0,3.1,0,4.6,0
		c0.4,0,0.7,0.2,0.7,0.6c0,0.3-0.3,0.6-0.6,0.6c-1.6,0-3.1,0-4.7,0C46.2,41.5,46.1,41.6,45.9,41.5C46,41.4,46,41.5,45.9,41.5
		C46,41.4,45.9,41.4,45.9,41.5z"/>
	<path class="st4" d="M43.6,44.4c0,0-0.1-0.1-0.1-0.1c0.2-0.3,0-0.7,0-1c0-0.1-0.1-0.3,0.1-0.1c0.1,0.1,0.1-0.1,0.2-0.1
		C43.8,43.5,43.8,44,43.6,44.4z"/>
	<path class="st5" d="M43.5,30.8c-0.2,0-0.1-0.1-0.2-0.2c-0.1,0,0.1,0.2-0.1,0.1c-0.1,0-0.1,0-0.1-0.2c0-0.2-0.1-0.4-0.1-0.6
		c0-0.1,0-0.1,0.1-0.1C43.3,30.1,43.4,30.5,43.5,30.8z"/>
	<path class="st6" d="M41.8,28.4c-0.2,0.1-0.5,0-0.7,0.1c0.1-0.2,0.2-0.3,0.1-0.5C41.5,28.1,41.7,28.3,41.8,28.4z"/>
	<path class="st7" d="M51.6,45.7c-0.3,0.1-0.4,0-0.4-0.3C51.3,45.4,51.5,45.5,51.6,45.7z"/>
	<path class="st8" d="M46.1,29.5c0.1,0.1,0.1,0.3,0,0.4C46,30,46,29.8,45.9,29.8C46,29.7,46,29.6,46.1,29.5z"/>
	<path class="st9" d="M42.4,28.9c-0.2,0.1-0.3,0.1-0.3-0.2C42.2,28.7,42.3,28.8,42.4,28.9z"/>
	<path class="st10" d="M19.9,46.2c0.1,0,0.1,0,0.2,0c0.1,0,0.1,0,0.1,0.1c0,0.1-0.1,0.1-0.2,0.1C19.9,46.4,19.9,46.3,19.9,46.2z"/>
	<path class="st11" d="M20.1,29.2c0,0.1,0.2,0.2,0,0.3c0-0.1,0-0.2-0.1-0.2C20,29.3,20.1,29.3,20.1,29.2z"/>
	<path class="st12" d="M49.6,28.3c-0.1,0.1-0.2,0.1-0.4,0.1C49.3,28.3,49.4,28.3,49.6,28.3C49.5,28.3,49.5,28.3,49.6,28.3z"/>
	<path class="st13" d="M45.9,41.5c0-0.1,0.1-0.1,0.2-0.1C46.1,41.5,46,41.5,45.9,41.5C46,41.5,45.9,41.5,45.9,41.5L45.9,41.5z"/>
	<path class="st7" d="M43.1,39.4c0-0.1,0-0.1,0-0.1c0,0,0.1,0,0.1,0c0,0,0.1,0,0.1,0c0,0-0.1,0-0.1-0.1c0,0,0.1,0,0.1-0.1
		c0.1,0,0-0.1,0.1-0.2c0.1,0,0.1,0,0.2,0.1c0.1,0.1,0.3,0.1,0.2,0.3c0,0.2-0.4,0.3-0.6,0.3C43.2,39.6,43,39.6,43.1,39.4z"/>
	<path class="st14" d="M43.1,39.4c0,0.1,0.2,0.1,0.2,0.2c0,0-0.2-0.1-0.1,0.1c0.1,0.2,0,0.4,0,0.6l0,0c0-0.1-0.1-0.1-0.1-0.2
		C43,39.9,43,39.6,43.1,39.4z"/>
	<path class="st15" d="M43.3,39.2c0,0.1,0.2,0,0.2,0.1c-0.1,0.1-0.3,0.1-0.4,0c0-0.1,0-0.2,0-0.3C43.3,38.9,43.2,39.1,43.3,39.2z"/>
	<path class="st16" d="M21,29.8c0,0.2-0.2,0.3-0.3,0.4c0-0.2,0.3-0.4,0.1-0.7C21.1,29.6,21,29.7,21,29.8z"/>
	<path class="st17" d="M21.5,29.1c-0.1,0.1-0.2,0.1-0.2,0.3c-0.1-0.1-0.2-0.2-0.1-0.3C21.3,28.9,21.4,29,21.5,29.1z"/>
	<ellipse class="st18" cx="18.7" cy="37.6" rx="0" ry="0.6"/>
	<path class="st18" d="M43.1,40.3c0.1,0,0-0.2,0.1-0.2c0.1,0.1,0,0.3,0,0.4C43.1,40.5,43.2,40.4,43.1,40.3
		C43.1,40.3,43.1,40.3,43.1,40.3z"/>
	<path class="st17" d="M23.5,48.4c0,0-0.1-0.1,0-0.1c0.2,0,0.3,0,0.5,0.1C23.9,48.3,23.7,48.3,23.5,48.4
		C23.5,48.3,23.5,48.4,23.5,48.4z"/>
	<path class="st16" d="M21.5,29.4c-0.1,0.1-0.1,0.2-0.2,0.2C21.2,29.5,21.3,29.4,21.5,29.4z"/>
	<path class="st19" d="M39.8,28.7c-0.1,0-0.2,0-0.3-0.1c0.2,0,0.3,0,0.5-0.1C40,28.7,39.9,28.6,39.8,28.7z"/>
	<path class="st19" d="M40.8,29.1c-0.1,0-0.2-0.1-0.3-0.1C40.7,28.8,40.7,29,40.8,29.1z"/>
	<path class="st11" d="M33.8,27c-0.1,0-0.2,0-0.3,0C33.6,27,33.7,27,33.8,27z"/>
	<path class="st20" d="M28.9,27c0.2,0,0.3,0,0.5,0C29.2,27,29.1,27.1,28.9,27z"/>
	<path class="st9" d="M41,46.8c-0.1,0.2-0.2,0.2-0.3,0.1C40.8,46.9,40.9,46.8,41,46.8z"/>
	<path class="st19" d="M40.5,28.9c-0.1,0-0.2,0-0.2-0.1C40.3,28.8,40.5,28.7,40.5,28.9z"/>
	<path class="st21" d="M21.8,47C22,47,22,47,22.1,47.1C22,47.1,21.9,47.1,21.8,47z"/>
	<path class="st22" d="M42.1,29.5c0,0.1,0,0.2-0.1,0.3C41.9,29.7,42,29.6,42.1,29.5z"/>
	<path class="st17" d="M25,28.2c0.1-0.1,0.2,0,0.3,0C25.2,28.3,25.2,28.2,25,28.2z"/>
	<path class="st11" d="M41.2,29.1c0.1,0,0.1,0,0.2,0C41.3,29.1,41.2,29.1,41.2,29.1z"/>
	<path class="st10" d="M35.2,48.7c0.1,0,0.1,0,0.2,0C35.3,48.8,35.3,48.7,35.2,48.7z"/>
	<path class="st18" d="M18.7,38.5c0-0.2,0-0.2,0-0.3C18.7,38.2,18.7,38.3,18.7,38.5z"/>
	<path class="st12" d="M43.4,39c0,0.1,0,0.1-0.1,0.2c0-0.1,0-0.2,0-0.3C43.4,38.9,43.4,38.9,43.4,39z"/>
	<path class="st23" d="M38.9,47.4c-0.1,0.1-0.1,0.1-0.2,0.1C38.7,47.5,38.7,47.4,38.9,47.4z"/>
	<path class="st9" d="M22,47.8c-0.1,0-0.1,0-0.2,0C21.9,47.7,22,47.7,22,47.8z"/>
	<path class="st16" d="M43.6,32.3c0,0.1,0,0.1,0,0.2c0,0,0,0,0,0C43.6,32.5,43.6,32.4,43.6,32.3C43.6,32.3,43.6,32.3,43.6,32.3z"/>
	<path class="st23" d="M42.4,30.4c0,0.1,0,0.1,0,0.2C42.3,30.5,42.3,30.5,42.4,30.4C42.3,30.4,42.3,30.4,42.4,30.4z"/>
	<path class="st24" d="M39,47.3c0.1,0,0.1,0,0.2,0C39.2,47.4,39.1,47.4,39,47.3z"/>
	<path class="st21" d="M38,27.5c0.1,0,0.1,0,0.2,0C38.2,27.5,38.1,27.5,38,27.5z"/>
	<path class="st2" d="M49.8,32.6c-0.8,0.6-1.9,0.5-2.5-0.1c-0.7-0.6-0.7-1.6-0.2-2.5c0.4-0.6,1.1-0.9,1.9-0.7
		c0.7,0.1,1.3,0.7,1.5,1.4c0.1,0.6,0,1.2-0.4,1.6C50,32.4,49.9,32.5,49.8,32.6z"/>
	<path class="st17" d="M46.5,32.8c-0.1,0-0.2-0.1-0.3-0.1C46.4,32.7,46.4,32.7,46.5,32.8z"/>
	<path class="st25" d="M49.8,32.6c0.1-0.1,0.2-0.2,0.3-0.3C50,32.5,49.9,32.6,49.8,32.6z"/>
	<path class="st26" d="M50.6,31.9c0-0.2,0-0.2,0-0.3C50.6,31.7,50.6,31.8,50.6,31.9z"/>
	<path class="st27" d="M46.7,30.1C46.7,30.1,46.7,30.1,46.7,30.1C46.7,30.1,46.8,30.1,46.7,30.1C46.8,30.1,46.8,30.2,46.7,30.1
		C46.7,30.2,46.7,30.2,46.7,30.1z"/>
	<path class="st28" d="M49.9,29.5c0.1,0,0.1,0,0.1-0.1c0,0,0,0,0,0C50.1,29.5,50,29.6,49.9,29.5z"/>
</g>
</svg>
