<?xml version="1.0" encoding="utf-8"?>
<!-- Generator: Adobe Illustrator 22.0.0, SVG Export Plug-In . SVG Version: 6.00 Build 0)  -->
<svg version="1.1" id="Camada_1" xmlns="http://www.w3.org/2000/svg" xmlns:xlink="http://www.w3.org/1999/xlink" x="0px" y="0px"
	 viewBox="0 0 70 70" style="enable-background:new 0 0 70 70;" xml:space="preserve">
<style type="text/css">
	.st0{fill:none;stroke:#D9D9D9;stroke-width:0.5;stroke-miterlimit:10;}
	.st1{fill-rule:evenodd;clip-rule:evenodd;fill:#D9D9D9;}
	.st2{fill-rule:evenodd;clip-rule:evenodd;fill:#F5A587;}
	.st3{fill-rule:evenodd;clip-rule:evenodd;fill:#FFFFFF;}
	.st4{fill:#F5A587;}
</style>
<circle class="st0" cx="34.8" cy="34.9" r="32.4"/>
<g>
	<path class="st1" d="M25.2,53.6c0,1.5,4.3,2.7,9.6,2.7c5.2,0,9.5-1.2,9.5-2.7c0-5.8,0.1-8.1,1-14.3c0.1-0.1,0.1-0.1,0.2-0.1
		c7.9-3.6-5.5-16.9-10.4-16.4c-5.2-0.4-19.2,12.6-11.3,16.3c0.1,0.1,0.2,0.1,0.2,0.1C25,45.3,25.2,47.9,25.2,53.6L25.2,53.6z"/>
	<path class="st2" d="M43.7,37.9c-1.4,0.7-4.9,1.3-9,1.3c-4.1,0-7.6-0.5-9-1.3c-0.5-0.2-0.7-0.5-0.7-0.8c0-1.1,4.3-2,9.7-2
		c5.4,0,9.6,0.9,9.6,2C44.4,37.4,44.2,37.7,43.7,37.9L43.7,37.9z"/>
	<path class="st3" d="M45.1,34.4L45.1,34.4C41.8,33,30,31.9,24.5,33.9C31.5,21.7,38.4,22.6,45.1,34.4L45.1,34.4z"/>
	<path class="st4" d="M34.8,12.9c0.3,0.7,0.8,1.3,1.2,1.9c0.5,0.6,0.9,1.3,0.8,2.2c-0.2,1.2-1.3,2-2.5,1.7c-1.1-0.3-1.7-1.5-1.3-2.8
		c0.1-0.4,0.4-0.8,0.6-1.2c0.2-0.3,0.5-0.5,0.7-0.8C34.5,13.6,34.6,13.3,34.8,12.9z"/>
</g>
</svg>
